<svg width="418" height="439" viewBox="0 0 418 439" fill="none" xmlns="http://www.w3.org/2000/svg">
<path d="M309.858 65.3296L381.867 107.607L403.76 120.585C407.627 122.898 413.235 126.427 417.139 128.423C417.633 131.95 417.253 144.108 417.256 148.423L417.269 193.468L417.309 345.287C405.284 351.722 392.046 360.015 380.182 366.98L300.245 414.214L273.471 430.048C269.198 432.551 263.079 436.346 258.705 438.43C234.967 424.66 211.315 410.75 187.747 396.692L164.716 383.083C161.148 380.995 154.775 377.573 151.669 375.333L151.688 300.681C151.683 287.418 151.375 272.909 151.795 259.81C153.707 259.175 162.97 253.342 165.129 252.092L197.888 233.216C202.33 230.678 209.779 226.133 214.214 224.04L214.159 296.958C219.224 300.265 226.152 304.008 231.494 307.08C240.771 312.399 250.008 317.794 259.202 323.257C261.764 321.971 264.264 320.538 266.754 319.115C285.234 308.548 303.743 297.821 321.529 286.139C306.959 278.65 290.56 268.254 276.203 259.839C255.75 247.856 234.721 236.232 214.461 224.059C213.92 211.665 214.179 197.915 214.181 185.42L214.197 122.791C221.054 118.226 230.434 112.869 237.637 108.572L282.753 81.6101C291.49 76.4108 301.433 70.8473 309.858 65.3296Z" fill="#151415" style="fill:#151415;fill:color(display-p3 0.0824 0.0784 0.0824);fill-opacity:1;"></path>
<path d="M309.858 65.3296L381.867 107.607L403.76 120.585C407.627 122.898 413.235 126.427 417.139 128.423C404.352 135.354 391.264 143.371 378.71 150.721L322.099 183.565C322.645 201.011 322.184 220.827 322.177 238.447L322.167 268.865C322.167 273.91 322.184 278.981 322.148 284.029C322.141 285.262 322.171 285.432 321.529 286.139C306.959 278.65 290.56 268.254 276.203 259.839C255.75 247.856 234.721 236.232 214.461 224.059C213.92 211.665 214.179 197.915 214.182 185.42L214.197 122.791C221.054 118.226 230.434 112.869 237.637 108.572L282.754 81.6101C291.49 76.4108 301.433 70.8473 309.858 65.3296Z" fill="#56B3C2" style="fill:#56B3C2;fill:color(display-p3 0.3373 0.7020 0.7608);fill-opacity:1;"></path>
<path d="M151.795 259.81C153.707 259.175 162.97 253.342 165.129 252.093L197.888 233.216C202.33 230.678 209.779 226.133 214.214 224.041L214.159 296.958L171.5 271.77C167.521 269.389 155.033 261.24 151.795 259.81Z" fill="#56B3C2" style="fill:#56B3C2;fill:color(display-p3 0.3373 0.7020 0.7608);fill-opacity:1;"></path>
<path d="M176.404 0C179.141 0.852222 197.867 12.5246 201.139 14.4668L268.828 54.3989L151.589 124.157L117.037 144.624C110.186 148.708 101.165 154.448 94.1272 157.877L94.1102 308.139L94.0929 351.974C94.0886 359.243 94.3 367.916 94.0124 375.097L93.5173 375.293C77.1485 366.643 57.9991 354.51 41.7095 344.901L17.4601 330.556C12.0696 327.373 5.05491 323.385 0.130637 319.766C-0.126537 311.512 0.0743604 302.176 0.0799227 293.84L0.107072 246.796L0.140772 104.191L176.404 0Z" fill="#151415" style="fill:#151415;fill:color(display-p3 0.0824 0.0784 0.0824);fill-opacity:1;"></path>
</svg>